# xmcd
#
# Track frame offsets:
#	150
#	13503
#	32401
#	49211
#	64111
#	74870
#	90215
#	104707
#	123907
#	140433
#	159346
#	172099
#	194634
#	208583
#	228236
#	249390
#	261727
#	293032
#	307972
#	321962
#
# Disc length: 4497 seconds
#
# Revision: 1
# Processed by: cddbd v1.5.2PL0 Copyright (c) Steve Scherf et al.
# Submitted via: audiograbber 1.83.01
#
DISCID=28118f14
DTITLE=Soulfinger - Summer Soul Night
DYEAR=2004
DGENRE=
TTITLE0=Everybody Needs Somebody
TTITLE1=Try A Little Tenderness
TTITLE2=Lady Marmelade
TTITLE3=I Never Loved A Man
TTITLE4=Sweet Soul Music
TTITLE5=My Girl
TTITLE6=Nutbush City Limits
TTITLE7=Play That Funky Music
TTITLE8=Ladies Night
TTITLE9=Grooving
TTITLE10=Funky Street
TTITLE11=When A Man Loves A Woman
TTITLE12=Hold On I'm Coming
TTITLE13=Dock Of The Bay
TTITLE14=Living In America
TTITLE15=I Feel Good
TTITLE16=Sex Machine
TTITLE17=Natural Woman
TTITLE18=Soul Man
TTITLE19=Man's World
EXTD=CD Live-Mitschnitt
EXTT0=
EXTT1=
EXTT2=
EXTT3=
EXTT4=
EXTT5=
EXTT6=
EXTT7=
EXTT8=
EXTT9=
EXTT10=
EXTT11=
EXTT12=
EXTT13=
EXTT14=
EXTT15=
EXTT16=
EXTT17=
EXTT18=
EXTT19=
PLAYORDER=
